<svg preserveAspectRatio="none" overflow="visible" style="display: block;" width="24" height="24" viewBox="0 0 24 24" fill="none" xmlns="http://www.w3.org/2000/svg">
<g id="mingcute:telegram-fill">
<path id="Vector" fill-rule="evenodd" clip-rule="evenodd" d="M19.777 4.93C20.0241 4.82599 20.2946 4.79012 20.5603 4.82612C20.826 4.86212 21.0772 4.96867 21.2877 5.13469C21.4982 5.3007 21.6604 5.52011 21.7574 5.77008C21.8543 6.02005 21.8825 6.29144 21.839 6.556L19.571 20.313C19.351 21.64 17.895 22.401 16.678 21.74C15.66 21.187 14.148 20.335 12.788 19.446C12.108 19.001 10.025 17.576 10.281 16.562C10.501 15.695 14.001 12.437 16.001 10.5C16.786 9.739 16.428 9.3 15.501 10C13.199 11.738 9.503 14.381 8.281 15.125C7.203 15.781 6.641 15.893 5.969 15.781C4.743 15.577 3.606 15.261 2.678 14.876C1.424 14.356 1.485 12.632 2.677 12.13L19.777 4.93Z" fill="#005170"/>
</g>
</svg>
